<mxfile host="65bd71144e">
    <diagram id="KKcilhX_-PsfVYI2Bg5r" name="Page-1">
        <mxGraphModel dx="764" dy="461" grid="1" gridSize="10" guides="1" tooltips="1" connect="1" arrows="1" fold="1" page="1" pageScale="1" pageWidth="827" pageHeight="1169" math="0" shadow="0">
            <root>
                <mxCell id="0"/>
                <mxCell id="1" parent="0"/>
                <mxCell id="18" value="&lt;b&gt;zip(count(), A):&lt;/b&gt;" style="text;html=1;strokeColor=none;fillColor=none;align=center;verticalAlign=middle;whiteSpace=wrap;rounded=0;shadow=0;glass=0;sketch=1;fontFamily=Courier New;fontSize=20;" parent="1" vertex="1">
                    <mxGeometry x="170" y="130" width="210" height="30" as="geometry"/>
                </mxCell>
                <mxCell id="3" value="&lt;font style=&quot;font-size: 20px&quot;&gt;a0&lt;/font&gt;" style="rounded=1;whiteSpace=wrap;html=1;fontFamily=Courier New;fontSize=24;strokeWidth=3;glass=0;shadow=0;sketch=1;strokeColor=#CCCCCC;" parent="1" vertex="1">
                    <mxGeometry x="420" y="160" width="40" height="40" as="geometry"/>
                </mxCell>
                <mxCell id="4" value="&lt;font style=&quot;font-size: 20px&quot;&gt;a1&lt;/font&gt;" style="rounded=1;whiteSpace=wrap;html=1;fontFamily=Courier New;fontSize=24;strokeWidth=3;glass=0;shadow=0;sketch=1;strokeColor=#CCCCCC;" parent="1" vertex="1">
                    <mxGeometry x="480" y="160" width="40" height="40" as="geometry"/>
                </mxCell>
                <mxCell id="5" value="&lt;font style=&quot;font-size: 20px&quot;&gt;a2&lt;/font&gt;" style="rounded=1;whiteSpace=wrap;html=1;fontFamily=Courier New;fontSize=24;strokeWidth=3;glass=0;shadow=0;sketch=1;strokeColor=#CCCCCC;" parent="1" vertex="1">
                    <mxGeometry x="540" y="160" width="40" height="40" as="geometry"/>
                </mxCell>
                <mxCell id="19" value="&lt;font style=&quot;font-size: 20px&quot;&gt;a3&lt;/font&gt;" style="rounded=1;whiteSpace=wrap;html=1;fontFamily=Courier New;fontSize=24;strokeWidth=3;glass=0;shadow=0;sketch=1;strokeColor=#CCCCCC;" parent="1" vertex="1">
                    <mxGeometry x="600" y="160" width="40" height="40" as="geometry"/>
                </mxCell>
                <mxCell id="20" value="&lt;font style=&quot;font-size: 20px&quot;&gt;0&lt;/font&gt;" style="rounded=1;whiteSpace=wrap;html=1;fontFamily=Courier New;fontSize=24;strokeWidth=3;glass=0;shadow=0;sketch=1;strokeColor=#CCCCCC;" parent="1" vertex="1">
                    <mxGeometry x="420" y="100" width="40" height="40" as="geometry"/>
                </mxCell>
                <mxCell id="21" value="&lt;font style=&quot;font-size: 20px&quot;&gt;1&lt;/font&gt;" style="rounded=1;whiteSpace=wrap;html=1;fontFamily=Courier New;fontSize=24;strokeWidth=3;glass=0;shadow=0;sketch=1;strokeColor=#CCCCCC;opacity=85;textOpacity=85;" parent="1" vertex="1">
                    <mxGeometry x="480" y="100" width="40" height="40" as="geometry"/>
                </mxCell>
                <mxCell id="22" value="&lt;font style=&quot;font-size: 20px&quot;&gt;2&lt;/font&gt;" style="rounded=1;whiteSpace=wrap;html=1;fontFamily=Courier New;fontSize=24;strokeWidth=3;glass=0;shadow=0;sketch=1;strokeColor=#CCCCCC;textOpacity=70;opacity=70;" parent="1" vertex="1">
                    <mxGeometry x="540" y="100" width="40" height="40" as="geometry"/>
                </mxCell>
                <mxCell id="23" value="&lt;font style=&quot;font-size: 20px&quot;&gt;3&lt;/font&gt;" style="rounded=1;whiteSpace=wrap;html=1;fontFamily=Courier New;fontSize=24;strokeWidth=3;glass=0;shadow=0;sketch=1;strokeColor=#CCCCCC;opacity=55;textOpacity=55;" parent="1" vertex="1">
                    <mxGeometry x="600" y="100" width="40" height="40" as="geometry"/>
                </mxCell>
                <mxCell id="24" value="" style="rounded=0;whiteSpace=wrap;html=1;fillColor=none;strokeColor=#660000;strokeWidth=3;sketch=1;" parent="1" vertex="1">
                    <mxGeometry x="410" y="90" width="60" height="120" as="geometry"/>
                </mxCell>
                <mxCell id="30" value="&lt;font style=&quot;font-size: 20px&quot;&gt;4&lt;/font&gt;" style="rounded=1;whiteSpace=wrap;html=1;fontFamily=Courier New;fontSize=24;strokeWidth=3;glass=0;shadow=0;sketch=1;strokeColor=#CCCCCC;opacity=40;strokeOpacity=100;textOpacity=40;" parent="1" vertex="1">
                    <mxGeometry x="660" y="100" width="40" height="40" as="geometry"/>
                </mxCell>
                <mxCell id="31" value="&lt;font style=&quot;font-size: 20px&quot;&gt;5&lt;/font&gt;" style="rounded=1;whiteSpace=wrap;html=1;fontFamily=Courier New;fontSize=24;strokeWidth=3;glass=0;shadow=0;sketch=1;strokeColor=#CCCCCC;opacity=25;textOpacity=25;" parent="1" vertex="1">
                    <mxGeometry x="720" y="100" width="40" height="40" as="geometry"/>
                </mxCell>
                <mxCell id="32" value="" style="endArrow=none;html=1;strokeWidth=2;" parent="1" edge="1">
                    <mxGeometry width="50" height="50" relative="1" as="geometry">
                        <mxPoint x="650" y="220" as="sourcePoint"/>
                        <mxPoint x="650" y="80" as="targetPoint"/>
                    </mxGeometry>
                </mxCell>
            </root>
        </mxGraphModel>
    </diagram>
</mxfile>